<svg xmlns="http://www.w3.org/2000/svg" xmlns:xlink="http://www.w3.org/1999/xlink" viewBox="0 0 900 430" width="900" height="430" role="img" aria-labelledby="t d">
<title id="t">GitHub stats</title>
<desc id="d">Contribution stats. Current streak 3 days, longest streak 6 days, 337 contributions in the last year, 80 active days, best day 21 contributions, 4.2 per active day. Monthly bar chart of contributions.</desc>
<style>
.m{font-family:ui-monospace,SFMono-Regular,Menlo,Consolas,"Liberation Mono",monospace}
.k{fill:#2ee6d6;font-size:12px;font-weight:700}
.v{fill:#e6edf3;font-size:12px}
.mu{fill:#7d8da1;font-size:11px}
.pr{fill:#7ee787;font-size:12px;font-weight:700}
.p{font-size:11px}
.big{font-size:26px;font-weight:700}
.t{clip-path:inset(0 100% 0 0)}
.f,.st,.bar,.cell,.fin{opacity:0}
.cur{animation:blink 1s steps(1) infinite}
.l0{--c:#161b22;--f:#161b22}.l1{--c:#0e4429;--f:#9dffb0}.l2{--c:#006d32;--f:#9dffb0}.l3{--c:#26a641;--f:#9dffb0}.l4{--c:#39d353;--f:#9dffb0}
.bar{transform-box:fill-box;transform-origin:50% 100%;transform:scaleY(0)}
@keyframes typ{to{clip-path:inset(0 0 0 0)}}
@keyframes fade{to{opacity:1}}
@keyframes rev{to{clip-path:inset(0 0 0 0)}}
@keyframes st{from{opacity:1}to{opacity:0}}
@keyframes blink{0%,49%{opacity:1}50%,100%{opacity:0}}
@keyframes cell{from{opacity:0;fill:var(--f)}to{opacity:1;fill:var(--c)}}
@keyframes grow{to{opacity:1;transform:scaleY(1)}}

@media (prefers-reduced-motion:reduce){*{animation:none!important;opacity:1!important;clip-path:none!important;transform:none!important}.st{display:none!important}.cur{opacity:1!important}}
</style>
<defs></defs>
<rect x="8" y="8" width="884" height="414" rx="16" fill="#0d1117" stroke="#1d6f6a" stroke-width="1.5"/>
<g class="t" style="animation:typ 1.00s steps(25) 6.50s forwards"><text class="m pr" x="450" y="42" text-anchor="middle">aniket@github ~ $ <tspan class="v" style="font-weight:400">whoami</tspan></text></g>
<g class="f" style="animation:fade 0.4s ease-out 7.60s forwards"><rect x="36" y="62" width="340" height="330" rx="8" fill="#0b1420" stroke="#1f3040"/><text class="m mu" x="364" y="76" text-anchor="end" style="font-size:9px">portrait.txt</text></g>
<text class="m f" x="126.0 130.0 134.0 138.0 142.0 146.0 150.0 154.0 158.0 162.0 166.0 170.0 174.0 178.0 182.0 186.0 190.0 194.0 198.0 202.0 206.0 210.0 214.0 218.0 222.0 226.0 230.0 234.0 238.0 242.0 246.0 250.0 254.0" y="90.0" style="font-size:6.6px;fill:#2ee6d6;animation:fade .2s ease-out 7.90s forwards">......:::::::::::::::::::::::....</text>
<text class="m f" x="166.0 170.0 174.0 178.0 182.0 186.0 190.0 194.0 198.0" y="104.0" style="font-size:6.6px;fill:#2ee6d6;animation:fade .2s ease-out 8.00s forwards">..:..::..</text>
<text class="m f" x="142.0 146.0 150.0 154.0 158.0 162.0 166.0 170.0 174.0 178.0 182.0 186.0 190.0 194.0 198.0 202.0 206.0 210.0 214.0" y="111.0" style="font-size:6.6px;fill:#2ee6d6;animation:fade .2s ease-out 8.05s forwards">:::=+*#%%###+=*+-:.</text>
<text class="m f" x="126.0 130.0 134.0 138.0 142.0 146.0 150.0 154.0 158.0 162.0 166.0 170.0 174.0 178.0 182.0 186.0 190.0 194.0 198.0 202.0 206.0 210.0 214.0 218.0 222.0" y="118.0" style="font-size:6.6px;fill:#2ee6d6;animation:fade .2s ease-out 8.10s forwards">::-+#@@@@@@@@@@@@@@%%#=:.</text>
<text class="m f" x="114.0 118.0 122.0 126.0 130.0 134.0 138.0 142.0 146.0 150.0 154.0 158.0 162.0 166.0 170.0 174.0 178.0 182.0 186.0 190.0 194.0 198.0 202.0 206.0 210.0 214.0 218.0 222.0 226.0 230.0" y="125.0" style="font-size:6.6px;fill:#2ee6d6;animation:fade .2s ease-out 8.15s forwards">.:+#@@@@@@@@@@@@@@@@@@@@@@%=:.</text>
<text class="m f" x="106.0 110.0 114.0 118.0 122.0 126.0 130.0 134.0 138.0 142.0 146.0 150.0 154.0 158.0 162.0 166.0 170.0 174.0 178.0 182.0 186.0 190.0 194.0 198.0 202.0 206.0 210.0 214.0 218.0 222.0 226.0 230.0 234.0 238.0" y="132.0" style="font-size:6.6px;fill:#2ee6d6;animation:fade .2s ease-out 8.20s forwards">.-*%@@@@@@@@@@@@@@@@@@@@@@@@@%#-..</text>
<text class="m f" x="102.0 106.0 110.0 114.0 118.0 122.0 126.0 130.0 134.0 138.0 142.0 146.0 150.0 154.0 158.0 162.0 166.0 170.0 174.0 178.0 182.0 186.0 190.0 194.0 198.0 202.0 206.0 210.0 214.0 218.0 222.0 226.0 230.0 234.0 238.0 242.0" y="139.0" style="font-size:6.6px;fill:#2ee6d6;animation:fade .2s ease-out 8.25s forwards">-*%@@@@@@@@@@@@@@@@@@@@@@@@@%@@@@*=:</text>
<text class="m f" x="94.0 98.0 102.0 106.0 110.0 114.0 118.0 122.0 126.0 130.0 134.0 138.0 142.0 146.0 150.0 154.0 158.0 162.0 166.0 170.0 174.0 178.0 182.0 186.0 190.0 194.0 198.0 202.0 206.0 210.0 214.0 218.0 222.0 226.0 230.0 234.0 238.0 242.0 246.0 250.0" y="146.0" style="font-size:6.6px;fill:#2ee6d6;animation:fade .2s ease-out 8.30s forwards">.=%%@@@@@@@@@@@@@@@@@@@@@@*+-::..=@@%+=.</text>
<text class="m f" x="90.0 94.0 98.0 102.0 106.0 110.0 114.0 118.0 122.0 126.0 130.0 134.0 138.0 142.0 146.0 150.0 154.0 158.0 162.0 166.0 170.0 174.0 178.0 182.0 186.0 190.0 194.0 210.0 226.0 230.0 234.0 238.0 242.0 246.0 250.0" y="153.0" style="font-size:6.6px;fill:#2ee6d6;animation:fade .2s ease-out 8.35s forwards">.=%%@@@@@@@@@@@@@@@@@@#+=:...:+@@%-</text>
<text class="m f" x="90.0 94.0 98.0 102.0 106.0 110.0 114.0 118.0 122.0 126.0 130.0 134.0 138.0 142.0 146.0 150.0 154.0 158.0 162.0 166.0 170.0 174.0 178.0 234.0 238.0 242.0 246.0 250.0 254.0" y="160.0" style="font-size:6.6px;fill:#2ee6d6;animation:fade .2s ease-out 8.40s forwards">:%%@@@@@@@@@@@@@@%#+-:..:+%#:</text>
<text class="m f" x="86.0 90.0 94.0 98.0 102.0 106.0 110.0 114.0 118.0 122.0 126.0 130.0 134.0 138.0 142.0 146.0 150.0 154.0 158.0 242.0 246.0 250.0 254.0" y="167.0" style="font-size:6.6px;fill:#2ee6d6;animation:fade .2s ease-out 8.45s forwards">.*%@@@@@@@@@@@@#-:.:=#-</text>
<text class="m f" x="62.0 66.0 86.0 90.0 94.0 98.0 102.0 106.0 110.0 114.0 118.0 122.0 126.0 130.0 134.0 138.0 142.0 146.0 150.0 246.0 250.0 254.0 258.0" y="174.0" style="font-size:6.6px;fill:#2ee6d6;animation:fade .2s ease-out 8.50s forwards">..=%@@@@@@@@@@@#-...:-:</text>
<text class="m f" x="62.0 66.0 82.0 86.0 90.0 94.0 98.0 102.0 106.0 110.0 114.0 118.0 122.0 126.0 130.0 134.0 222.0 226.0 230.0 234.0 238.0 242.0 250.0 254.0 258.0" y="181.0" style="font-size:6.6px;fill:#2ee6d6;animation:fade .2s ease-out 8.55s forwards">.:.#@@@@@@@@@%*:...::..--</text>
<text class="m f" x="82.0 86.0 90.0 94.0 98.0 102.0 106.0 110.0 114.0 118.0 122.0 126.0 210.0 214.0 218.0 222.0 226.0 230.0 234.0 238.0 242.0 246.0 250.0 254.0 258.0 262.0" y="188.0" style="font-size:6.6px;fill:#2ee6d6;animation:fade .2s ease-out 8.60s forwards">:@@@@@@@@@=:..-*##%@%+:--.</text>
<text class="m f" x="82.0 86.0 90.0 94.0 98.0 102.0 106.0 110.0 114.0 118.0 206.0 210.0 214.0 218.0 222.0 226.0 230.0 234.0 238.0 242.0 246.0 250.0 254.0 258.0 262.0" y="195.0" style="font-size:6.6px;fill:#2ee6d6;animation:fade .2s ease-out 8.65s forwards">:@@@@@@@#:-%@@@@@@@@@#.:.</text>
<text class="m f" x="82.0 86.0 90.0 94.0 98.0 102.0 106.0 110.0 114.0 118.0 158.0 162.0 166.0 170.0 174.0 178.0 182.0 198.0 202.0 206.0 210.0 214.0 218.0 222.0 226.0 230.0 234.0 238.0 242.0 246.0 250.0 262.0 266.0 270.0 274.0" y="202.0" style="font-size:6.6px;fill:#2ee6d6;animation:fade .2s ease-out 8.70s forwards">-@@@@@@@=.....:...:#@@@@@#*+=+:...:</text>
<text class="m f" x="82.0 86.0 90.0 94.0 98.0 102.0 106.0 110.0 114.0 118.0 122.0 142.0 146.0 150.0 154.0 158.0 162.0 166.0 170.0 174.0 178.0 182.0 186.0 190.0 194.0 198.0 202.0 206.0 210.0 214.0 218.0 222.0 226.0 230.0 234.0 238.0 242.0 246.0 250.0 254.0 262.0 266.0 270.0 274.0 278.0" y="209.0" style="font-size:6.6px;fill:#2ee6d6;animation:fade .2s ease-out 8.75s forwards">:@@@@@@@#+..:-+*%@@@@%*++*=*%@@@@@@#@%#-..=-:</text>
<text class="m f" x="82.0 86.0 90.0 94.0 98.0 102.0 106.0 110.0 114.0 118.0 122.0 126.0 130.0 138.0 142.0 146.0 150.0 154.0 158.0 162.0 166.0 170.0 174.0 178.0 182.0 186.0 190.0 194.0 198.0 202.0 210.0 214.0 218.0 222.0 226.0 230.0 234.0 238.0 242.0 246.0 250.0 266.0 270.0 274.0 278.0 282.0" y="216.0" style="font-size:6.6px;fill:#2ee6d6;animation:fade .2s ease-out 8.80s forwards">:#@@@@@@%+:..-#@@@@@@@@@@%+-:.+%@@@%%+==-.:-::</text>
<text class="m f" x="86.0 90.0 94.0 98.0 102.0 106.0 110.0 114.0 118.0 122.0 126.0 130.0 134.0 138.0 142.0 146.0 150.0 154.0 158.0 162.0 166.0 170.0 174.0 178.0 182.0 186.0 190.0 206.0 210.0 214.0 218.0 222.0 226.0 230.0 234.0 238.0 242.0 246.0 250.0 270.0 274.0 278.0 282.0 302.0 306.0 310.0" y="223.0" style="font-size:6.6px;fill:#2ee6d6;animation:fade .2s ease-out 8.85s forwards">-@@@@@%*:..:+@@@@@@@@@@@%%-..:-#%@%#*-...::...</text>
<text class="m f" x="86.0 90.0 94.0 98.0 102.0 106.0 110.0 114.0 126.0 130.0 134.0 138.0 142.0 146.0 150.0 154.0 158.0 162.0 166.0 170.0 174.0 178.0 182.0 186.0 190.0 214.0 218.0 222.0 226.0 230.0 234.0 238.0 242.0 274.0 278.0 282.0" y="230.0" style="font-size:6.6px;fill:#2ee6d6;animation:fade .2s ease-out 8.90s forwards">.=@@@@#..=@@@%@@@@@#@@%+-...::::....</text>
<text class="m f" x="94.0 98.0 102.0 106.0 110.0 130.0 134.0 138.0 142.0 146.0 150.0 154.0 158.0 162.0 166.0 170.0 174.0 178.0 182.0 190.0 230.0 234.0 238.0 242.0 278.0" y="237.0" style="font-size:6.6px;fill:#2ee6d6;animation:fade .2s ease-out 8.95s forwards">+@@@*:*#@@@@%#+#%*:.:=-..</text>
<text class="m f" x="94.0 98.0 102.0 106.0 110.0 114.0 130.0 134.0 138.0 142.0 146.0 150.0 154.0 158.0 162.0 166.0 170.0 174.0 178.0 186.0 218.0 230.0 234.0 238.0 242.0 246.0 250.0 254.0 258.0 262.0 266.0 278.0 282.0" y="244.0" style="font-size:6.6px;fill:#2ee6d6;animation:fade .2s ease-out 9.00s forwards">.*@@#.:+**++####+....:=##*=-::...</text>
<text class="m f" x="98.0 102.0 106.0 110.0 114.0 146.0 150.0 154.0 158.0 162.0 166.0 174.0 178.0 182.0 186.0 190.0 222.0 226.0 230.0 234.0 238.0 242.0 246.0 250.0 254.0 258.0 262.0 266.0 270.0 274.0 278.0 290.0" y="251.0" style="font-size:6.6px;fill:#2ee6d6;animation:fade .2s ease-out 9.05s forwards">:#@@=.:.....:=..::-:-+@@@%#*:...</text>
<text class="m f" x="90.0 94.0 98.0 102.0 106.0 110.0 114.0 118.0 122.0 174.0 178.0 182.0 186.0 190.0 194.0 198.0 202.0 206.0 210.0 214.0 218.0 222.0 226.0 230.0 234.0 238.0 242.0 246.0 250.0 254.0 258.0 262.0 266.0 270.0 274.0 282.0" y="258.0" style="font-size:6.6px;fill:#2ee6d6;animation:fade .2s ease-out 9.10s forwards">.:::*@@:..+#=...::-==*@@%%@@@@@+==..</text>
<text class="m f" x="94.0 98.0 102.0 106.0 110.0 114.0 118.0 122.0 126.0 174.0 178.0 182.0 186.0 190.0 194.0 198.0 202.0 206.0 210.0 214.0 218.0 222.0 226.0 230.0 234.0 238.0 242.0 246.0 250.0 254.0 258.0 262.0 266.0" y="265.0" style="font-size:6.6px;fill:#2ee6d6;animation:fade .2s ease-out 9.15s forwards">+#*=+#+:.+@+=+%@@@@@@@@@@%%@@@@-.</text>
<text class="m f" x="94.0 98.0 102.0 106.0 110.0 114.0 118.0 122.0 126.0 166.0 170.0 174.0 178.0 182.0 186.0 190.0 194.0 198.0 202.0 206.0 210.0 214.0 218.0 222.0 226.0 230.0 234.0 238.0 242.0 246.0 250.0 254.0 258.0 262.0 266.0" y="272.0" style="font-size:6.6px;fill:#2ee6d6;animation:fade .2s ease-out 9.20s forwards">-*=.:%%=-.=@###%@@@@@@%%@%##@@@@@=.</text>
<text class="m f" x="98.0 102.0 106.0 110.0 114.0 118.0 122.0 126.0 130.0 158.0 162.0 166.0 170.0 174.0 178.0 182.0 186.0 190.0 194.0 198.0 202.0 206.0 210.0 214.0 218.0 222.0 226.0 230.0 234.0 238.0 242.0 246.0 250.0 254.0 258.0 262.0 266.0 270.0 274.0" y="279.0" style="font-size:6.6px;fill:#2ee6d6;animation:fade .2s ease-out 9.25s forwards">-:.-*=*=:.:+@@@@@@@@@%%#*==+++*+-:*=::.</text>
<text class="m f" x="70.0 74.0 102.0 106.0 110.0 114.0 118.0 122.0 126.0 130.0 134.0 138.0 142.0 146.0 150.0 154.0 158.0 162.0 166.0 170.0 174.0 178.0 182.0 186.0 190.0 194.0 198.0 202.0 206.0 210.0 214.0 218.0 222.0 226.0 230.0 234.0 238.0 242.0 246.0 258.0 262.0 266.0 270.0 274.0 278.0 282.0 286.0" y="286.0" style="font-size:6.6px;fill:#2ee6d6;animation:fade .2s ease-out 9.30s forwards">..:.::.-%=:.-::-=++@@@@@@#+++++++=.:::..:..::..</text>
<text class="m f" x="74.0 110.0 118.0 126.0 130.0 134.0 138.0 142.0 146.0 150.0 154.0 158.0 162.0 166.0 170.0 174.0 178.0 182.0 186.0 190.0 194.0 198.0 202.0 206.0 210.0 214.0 218.0 222.0 226.0 230.0 234.0 238.0 246.0 274.0 278.0" y="293.0" style="font-size:6.6px;fill:#2ee6d6;animation:fade .2s ease-out 9.35s forwards">...=%=::-::.:-+@@@@@#+-+-...:::-.-:</text>
<text class="m f" x="126.0 130.0 134.0 138.0 142.0 146.0 150.0 154.0 158.0 162.0 166.0 170.0 174.0 178.0 182.0 186.0 190.0 194.0 198.0 202.0 206.0 210.0 214.0 218.0 222.0 226.0 230.0 234.0 238.0 242.0 246.0 274.0 278.0 282.0 286.0 290.0 294.0 298.0 302.0 306.0" y="300.0" style="font-size:6.6px;fill:#2ee6d6;animation:fade .2s ease-out 9.40s forwards">.*#+:::::...-%+:::-::::=+#@@@=.--.......</text>
<text class="m f" x="110.0 126.0 130.0 134.0 138.0 142.0 146.0 150.0 154.0 158.0 162.0 166.0 170.0 174.0 178.0 182.0 186.0 206.0 210.0 214.0 218.0 222.0 226.0 230.0 234.0 238.0 242.0 246.0 262.0 270.0 274.0" y="307.0" style="font-size:6.6px;fill:#2ee6d6;animation:fade .2s ease-out 9.45s forwards">.:--*+-:--::::+=.:+#@@@@*-...:-</text>
<text class="m f" x="118.0 122.0 138.0 142.0 146.0 150.0 154.0 158.0 162.0 166.0 170.0 174.0 178.0 182.0 186.0 210.0 214.0 218.0 222.0 226.0 230.0 234.0 238.0 246.0 250.0 254.0 258.0 262.0 266.0 270.0 274.0" y="314.0" style="font-size:6.6px;fill:#2ee6d6;animation:fade .2s ease-out 9.50s forwards">..-*#*==:--=--::---::...::::--:</text>
<text class="m f" x="142.0 146.0 150.0 154.0 158.0 162.0 166.0 170.0 174.0 178.0 182.0 202.0 206.0 210.0 218.0 222.0 226.0 230.0 234.0 238.0 242.0 246.0 250.0 254.0 258.0 262.0 266.0 274.0 278.0 282.0" y="321.0" style="font-size:6.6px;fill:#2ee6d6;animation:fade .2s ease-out 9.55s forwards">:=%%#+=--=-....:--++*#@%#%=:::</text>
<text class="m f" x="146.0 150.0 154.0 158.0 162.0 166.0 170.0 174.0 178.0 182.0 186.0 190.0 194.0 198.0 202.0 206.0 210.0 214.0 218.0 222.0 226.0 230.0 234.0 238.0 242.0 246.0 250.0 254.0 258.0 262.0 274.0 278.0 282.0 286.0 290.0" y="328.0" style="font-size:6.6px;fill:#2ee6d6;animation:fade .2s ease-out 9.60s forwards">.-####*==---::.:-+*%@@@@@@@@@+:+...</text>
<text class="m f" x="154.0 158.0 162.0 166.0 170.0 174.0 178.0 182.0 186.0 190.0 194.0 198.0 202.0 206.0 210.0 214.0 218.0 222.0 226.0 230.0 234.0 238.0 242.0 246.0 250.0 254.0 258.0 274.0 278.0 282.0" y="335.0" style="font-size:6.6px;fill:#2ee6d6;animation:fade .2s ease-out 9.65s forwards">-+##**+++**#*##%@@@@@@@@@%-.#-</text>
<text class="m f" x="158.0 162.0 166.0 170.0 174.0 178.0 182.0 186.0 190.0 194.0 198.0 202.0 206.0 210.0 214.0 218.0 222.0 226.0 230.0 234.0 238.0 242.0 246.0 250.0 254.0 278.0 282.0 286.0 290.0" y="342.0" style="font-size:6.6px;fill:#2ee6d6;animation:fade .2s ease-out 9.70s forwards">:-+%@%%%@@@@@@@@%%@@@@@%:+%-.</text>
<text class="m f" x="158.0 162.0 166.0 170.0 174.0 178.0 182.0 186.0 190.0 194.0 198.0 202.0 206.0 210.0 214.0 218.0 222.0 226.0 230.0 234.0 238.0 242.0 246.0 250.0 278.0 282.0 286.0 290.0" y="349.0" style="font-size:6.6px;fill:#2ee6d6;animation:fade .2s ease-out 9.75s forwards">.=:=*#@@@@@@@@@@@@@@@@#--#*:</text>
<text class="m f" x="138.0 158.0 162.0 166.0 170.0 174.0 178.0 182.0 186.0 190.0 194.0 198.0 202.0 206.0 210.0 214.0 218.0 222.0 226.0 230.0 234.0 238.0 242.0 246.0 282.0 286.0 290.0 294.0" y="356.0" style="font-size:6.6px;fill:#2ee6d6;animation:fade .2s ease-out 9.80s forwards">..:@+=++*%%%%@@@@@@@@%*=*+=.</text>
<text class="m f" x="162.0 166.0 170.0 174.0 178.0 182.0 186.0 190.0 194.0 198.0 202.0 206.0 210.0 214.0 218.0 222.0 226.0 230.0 234.0 238.0 242.0 246.0 250.0 282.0 286.0 290.0 294.0" y="363.0" style="font-size:6.6px;fill:#2ee6d6;animation:fade .2s ease-out 9.85s forwards">:*@%*+==+*+****##**+--.-=-:</text>
<text class="m f" x="138.0 166.0 170.0 174.0 178.0 182.0 186.0 190.0 194.0 198.0 202.0 206.0 210.0 214.0 218.0 222.0 226.0 230.0 234.0 238.0 242.0 246.0 250.0 254.0 282.0 286.0 290.0 294.0" y="370.0" style="font-size:6.6px;fill:#2ee6d6;animation:fade .2s ease-out 9.90s forwards">.:=@@#+---=+***#******=..-:.</text>
<text class="m f" x="170.0 174.0 178.0 182.0 186.0 190.0 194.0 198.0 202.0 206.0 210.0 214.0 218.0 222.0 226.0 230.0 234.0 238.0 242.0 246.0 250.0 254.0 258.0 286.0 290.0" y="377.0" style="font-size:6.6px;fill:#2ee6d6;animation:fade .2s ease-out 9.95s forwards">.-@@@#+=---=+++***+=-:...</text>
<text class="m f" x="178.0 182.0 186.0 190.0 194.0 198.0 202.0 206.0 210.0 214.0 218.0 222.0 226.0 230.0 234.0 238.0 242.0 246.0 250.0 254.0" y="384.0" style="font-size:6.6px;fill:#2ee6d6;animation:fade .2s ease-out 10.00s forwards">:+@@%*+=::---:--::::</text>
<text class="m f" x="122.0 126.0 130.0 134.0 138.0 142.0 146.0 150.0 154.0 158.0 162.0 166.0 170.0 174.0 178.0 182.0 186.0 190.0 194.0 198.0 202.0 206.0 210.0 214.0 218.0 222.0 226.0 230.0 234.0 238.0 242.0 246.0 250.0 254.0 258.0 262.0" y="391.0" style="font-size:6.6px;fill:#2ee6d6;animation:fade .2s ease-out 10.05s forwards">..:::::::::-----=%%%#++=-----:-:::..</text>
<g class="f" style="animation:fade 0.4s ease-out 8.20s forwards"><rect x="396" y="62" width="228" height="72" rx="8" fill="#111b27" stroke="#1f3040"/><text class="m mu" x="408" y="80" style="font-size:10px">$ current streak</text><text class="m mu" x="408" y="125" style="font-size:10px">Oct 5 to Oct 7</text></g>
<text class="m big st" x="408" y="108" fill="#7ee787" style="animation:st 0.225s steps(1) 8.400s forwards">0<tspan class="mu" dx="5" style="font-weight:400">days</tspan></text>
<text class="m big st" x="408" y="108" fill="#7ee787" style="animation:st 0.225s steps(1) 8.625s forwards">1<tspan class="mu" dx="5" style="font-weight:400">days</tspan></text>
<text class="m big st" x="408" y="108" fill="#7ee787" style="animation:st 0.225s steps(1) 8.850s forwards">2<tspan class="mu" dx="5" style="font-weight:400">days</tspan></text>
<text class="m big fin" x="408" y="108" fill="#7ee787" style="animation:fade .05s 9.075s forwards">3<tspan class="mu" dx="5" style="font-weight:400">days</tspan></text>
<g class="f" style="animation:fade 0.4s ease-out 8.50s forwards"><rect x="636" y="62" width="228" height="72" rx="8" fill="#111b27" stroke="#1f3040"/><text class="m mu" x="648" y="80" style="font-size:10px">$ longest streak</text><text class="m mu" x="648" y="125" style="font-size:10px">Apr 24 to Apr 29</text></g>
<text class="m big st" x="648" y="108" fill="#7ee787" style="animation:st 0.150s steps(1) 8.700s forwards">1<tspan class="mu" dx="5" style="font-weight:400">days</tspan></text>
<text class="m big st" x="648" y="108" fill="#7ee787" style="animation:st 0.150s steps(1) 8.850s forwards">2<tspan class="mu" dx="5" style="font-weight:400">days</tspan></text>
<text class="m big st" x="648" y="108" fill="#7ee787" style="animation:st 0.150s steps(1) 9.000s forwards">3<tspan class="mu" dx="5" style="font-weight:400">days</tspan></text>
<text class="m big st" x="648" y="108" fill="#7ee787" style="animation:st 0.150s steps(1) 9.150s forwards">4<tspan class="mu" dx="5" style="font-weight:400">days</tspan></text>
<text class="m big st" x="648" y="108" fill="#7ee787" style="animation:st 0.150s steps(1) 9.300s forwards">5<tspan class="mu" dx="5" style="font-weight:400">days</tspan></text>
<text class="m big fin" x="648" y="108" fill="#7ee787" style="animation:fade .05s 9.450s forwards">6<tspan class="mu" dx="5" style="font-weight:400">days</tspan></text>
<g class="f" style="animation:fade 0.4s ease-out 8.80s forwards"><rect x="396" y="142" width="228" height="72" rx="8" fill="#111b27" stroke="#1f3040"/><text class="m mu" x="408" y="160" style="font-size:10px">$ contributions</text><text class="m mu" x="408" y="205" style="font-size:10px">Oct 5 to Oct 7</text></g>
<text class="m big st" x="408" y="188" fill="#e6edf3" style="animation:st 0.056s steps(1) 9.000s forwards">53<tspan class="mu" dx="5" style="font-weight:400">last year</tspan></text>
<text class="m big st" x="408" y="188" fill="#e6edf3" style="animation:st 0.056s steps(1) 9.056s forwards">100<tspan class="mu" dx="5" style="font-weight:400">last year</tspan></text>
<text class="m big st" x="408" y="188" fill="#e6edf3" style="animation:st 0.056s steps(1) 9.112s forwards">142<tspan class="mu" dx="5" style="font-weight:400">last year</tspan></text>
<text class="m big st" x="408" y="188" fill="#e6edf3" style="animation:st 0.056s steps(1) 9.169s forwards">178<tspan class="mu" dx="5" style="font-weight:400">last year</tspan></text>
<text class="m big st" x="408" y="188" fill="#e6edf3" style="animation:st 0.056s steps(1) 9.225s forwards">210<tspan class="mu" dx="5" style="font-weight:400">last year</tspan></text>
<text class="m big st" x="408" y="188" fill="#e6edf3" style="animation:st 0.056s steps(1) 9.281s forwards">237<tspan class="mu" dx="5" style="font-weight:400">last year</tspan></text>
<text class="m big st" x="408" y="188" fill="#e6edf3" style="animation:st 0.056s steps(1) 9.337s forwards">260<tspan class="mu" dx="5" style="font-weight:400">last year</tspan></text>
<text class="m big st" x="408" y="188" fill="#e6edf3" style="animation:st 0.056s steps(1) 9.394s forwards">279<tspan class="mu" dx="5" style="font-weight:400">last year</tspan></text>
<text class="m big st" x="408" y="188" fill="#e6edf3" style="animation:st 0.056s steps(1) 9.450s forwards">295<tspan class="mu" dx="5" style="font-weight:400">last year</tspan></text>
<text class="m big st" x="408" y="188" fill="#e6edf3" style="animation:st 0.056s steps(1) 9.506s forwards">307<tspan class="mu" dx="5" style="font-weight:400">last year</tspan></text>
<text class="m big st" x="408" y="188" fill="#e6edf3" style="animation:st 0.056s steps(1) 9.562s forwards">317<tspan class="mu" dx="5" style="font-weight:400">last year</tspan></text>
<text class="m big st" x="408" y="188" fill="#e6edf3" style="animation:st 0.056s steps(1) 9.619s forwards">325<tspan class="mu" dx="5" style="font-weight:400">last year</tspan></text>
<text class="m big st" x="408" y="188" fill="#e6edf3" style="animation:st 0.056s steps(1) 9.675s forwards">330<tspan class="mu" dx="5" style="font-weight:400">last year</tspan></text>
<text class="m big st" x="408" y="188" fill="#e6edf3" style="animation:st 0.056s steps(1) 9.731s forwards">333<tspan class="mu" dx="5" style="font-weight:400">last year</tspan></text>
<text class="m big st" x="408" y="188" fill="#e6edf3" style="animation:st 0.056s steps(1) 9.787s forwards">335<tspan class="mu" dx="5" style="font-weight:400">last year</tspan></text>
<text class="m big fin" x="408" y="188" fill="#e6edf3" style="animation:fade .05s 9.844s forwards">337<tspan class="mu" dx="5" style="font-weight:400">last year</tspan></text>
<g class="f" style="animation:fade 0.4s ease-out 9.10s forwards"><rect x="636" y="142" width="228" height="72" rx="8" fill="#111b27" stroke="#1f3040"/><text class="m mu" x="648" y="160" style="font-size:10px">$ active days</text><text class="m mu" x="648" y="205" style="font-size:10px">22% of the window</text></g>
<text class="m big st" x="648" y="188" fill="#e6edf3" style="animation:st 0.060s steps(1) 9.300s forwards">13<tspan class="mu" dx="5" style="font-weight:400">/ 368 days</tspan></text>
<text class="m big st" x="648" y="188" fill="#e6edf3" style="animation:st 0.060s steps(1) 9.360s forwards">24<tspan class="mu" dx="5" style="font-weight:400">/ 368 days</tspan></text>
<text class="m big st" x="648" y="188" fill="#e6edf3" style="animation:st 0.060s steps(1) 9.420s forwards">34<tspan class="mu" dx="5" style="font-weight:400">/ 368 days</tspan></text>
<text class="m big st" x="648" y="188" fill="#e6edf3" style="animation:st 0.060s steps(1) 9.480s forwards">42<tspan class="mu" dx="5" style="font-weight:400">/ 368 days</tspan></text>
<text class="m big st" x="648" y="188" fill="#e6edf3" style="animation:st 0.060s steps(1) 9.540s forwards">50<tspan class="mu" dx="5" style="font-weight:400">/ 368 days</tspan></text>
<text class="m big st" x="648" y="188" fill="#e6edf3" style="animation:st 0.060s steps(1) 9.600s forwards">56<tspan class="mu" dx="5" style="font-weight:400">/ 368 days</tspan></text>
<text class="m big st" x="648" y="188" fill="#e6edf3" style="animation:st 0.060s steps(1) 9.660s forwards">62<tspan class="mu" dx="5" style="font-weight:400">/ 368 days</tspan></text>
<text class="m big st" x="648" y="188" fill="#e6edf3" style="animation:st 0.060s steps(1) 9.720s forwards">66<tspan class="mu" dx="5" style="font-weight:400">/ 368 days</tspan></text>
<text class="m big st" x="648" y="188" fill="#e6edf3" style="animation:st 0.060s steps(1) 9.780s forwards">70<tspan class="mu" dx="5" style="font-weight:400">/ 368 days</tspan></text>
<text class="m big st" x="648" y="188" fill="#e6edf3" style="animation:st 0.060s steps(1) 9.840s forwards">73<tspan class="mu" dx="5" style="font-weight:400">/ 368 days</tspan></text>
<text class="m big st" x="648" y="188" fill="#e6edf3" style="animation:st 0.060s steps(1) 9.900s forwards">75<tspan class="mu" dx="5" style="font-weight:400">/ 368 days</tspan></text>
<text class="m big st" x="648" y="188" fill="#e6edf3" style="animation:st 0.060s steps(1) 9.960s forwards">77<tspan class="mu" dx="5" style="font-weight:400">/ 368 days</tspan></text>
<text class="m big st" x="648" y="188" fill="#e6edf3" style="animation:st 0.060s steps(1) 10.020s forwards">78<tspan class="mu" dx="5" style="font-weight:400">/ 368 days</tspan></text>
<text class="m big st" x="648" y="188" fill="#e6edf3" style="animation:st 0.060s steps(1) 10.080s forwards">79<tspan class="mu" dx="5" style="font-weight:400">/ 368 days</tspan></text>
<text class="m big fin" x="648" y="188" fill="#e6edf3" style="animation:fade .05s 10.140s forwards">80<tspan class="mu" dx="5" style="font-weight:400">/ 368 days</tspan></text>
<g class="f" style="animation:fade 0.4s ease-out 9.40s forwards"><rect x="396" y="222" width="228" height="72" rx="8" fill="#111b27" stroke="#1f3040"/><text class="m mu" x="408" y="240" style="font-size:10px">$ best day</text><text class="m mu" x="408" y="285" style="font-size:10px">Oct 6</text></g>
<text class="m big st" x="408" y="268" fill="#e6edf3" style="animation:st 0.075s steps(1) 9.600s forwards">3<tspan class="mu" dx="5" style="font-weight:400">contributions</tspan></text>
<text class="m big st" x="408" y="268" fill="#e6edf3" style="animation:st 0.075s steps(1) 9.675s forwards">6<tspan class="mu" dx="5" style="font-weight:400">contributions</tspan></text>
<text class="m big st" x="408" y="268" fill="#e6edf3" style="animation:st 0.075s steps(1) 9.750s forwards">9<tspan class="mu" dx="5" style="font-weight:400">contributions</tspan></text>
<text class="m big st" x="408" y="268" fill="#e6edf3" style="animation:st 0.075s steps(1) 9.825s forwards">11<tspan class="mu" dx="5" style="font-weight:400">contributions</tspan></text>
<text class="m big st" x="408" y="268" fill="#e6edf3" style="animation:st 0.075s steps(1) 9.900s forwards">13<tspan class="mu" dx="5" style="font-weight:400">contributions</tspan></text>
<text class="m big st" x="408" y="268" fill="#e6edf3" style="animation:st 0.075s steps(1) 9.975s forwards">15<tspan class="mu" dx="5" style="font-weight:400">contributions</tspan></text>
<text class="m big st" x="408" y="268" fill="#e6edf3" style="animation:st 0.075s steps(1) 10.050s forwards">16<tspan class="mu" dx="5" style="font-weight:400">contributions</tspan></text>
<text class="m big st" x="408" y="268" fill="#e6edf3" style="animation:st 0.075s steps(1) 10.125s forwards">17<tspan class="mu" dx="5" style="font-weight:400">contributions</tspan></text>
<text class="m big st" x="408" y="268" fill="#e6edf3" style="animation:st 0.075s steps(1) 10.200s forwards">18<tspan class="mu" dx="5" style="font-weight:400">contributions</tspan></text>
<text class="m big st" x="408" y="268" fill="#e6edf3" style="animation:st 0.075s steps(1) 10.275s forwards">19<tspan class="mu" dx="5" style="font-weight:400">contributions</tspan></text>
<text class="m big st" x="408" y="268" fill="#e6edf3" style="animation:st 0.075s steps(1) 10.350s forwards">20<tspan class="mu" dx="5" style="font-weight:400">contributions</tspan></text>
<text class="m big fin" x="408" y="268" fill="#e6edf3" style="animation:fade .05s 10.425s forwards">21<tspan class="mu" dx="5" style="font-weight:400">contributions</tspan></text>
<g class="f" style="animation:fade 0.4s ease-out 9.70s forwards"><rect x="636" y="222" width="228" height="72" rx="8" fill="#111b27" stroke="#1f3040"/><text class="m mu" x="648" y="240" style="font-size:10px">$ avg / active day</text><text class="m mu" x="648" y="285" style="font-size:10px">total / active days</text></g>
<text class="m big st" x="648" y="268" fill="#e6edf3" style="animation:st 0.069s steps(1) 9.900s forwards">0.7<tspan class="mu" dx="5" style="font-weight:400">contributions</tspan></text>
<text class="m big st" x="648" y="268" fill="#e6edf3" style="animation:st 0.069s steps(1) 9.969s forwards">1.3<tspan class="mu" dx="5" style="font-weight:400">contributions</tspan></text>
<text class="m big st" x="648" y="268" fill="#e6edf3" style="animation:st 0.069s steps(1) 10.038s forwards">1.8<tspan class="mu" dx="5" style="font-weight:400">contributions</tspan></text>
<text class="m big st" x="648" y="268" fill="#e6edf3" style="animation:st 0.069s steps(1) 10.108s forwards">2.2<tspan class="mu" dx="5" style="font-weight:400">contributions</tspan></text>
<text class="m big st" x="648" y="268" fill="#e6edf3" style="animation:st 0.069s steps(1) 10.177s forwards">2.6<tspan class="mu" dx="5" style="font-weight:400">contributions</tspan></text>
<text class="m big st" x="648" y="268" fill="#e6edf3" style="animation:st 0.069s steps(1) 10.246s forwards">3.0<tspan class="mu" dx="5" style="font-weight:400">contributions</tspan></text>
<text class="m big st" x="648" y="268" fill="#e6edf3" style="animation:st 0.069s steps(1) 10.315s forwards">3.2<tspan class="mu" dx="5" style="font-weight:400">contributions</tspan></text>
<text class="m big st" x="648" y="268" fill="#e6edf3" style="animation:st 0.069s steps(1) 10.385s forwards">3.5<tspan class="mu" dx="5" style="font-weight:400">contributions</tspan></text>
<text class="m big st" x="648" y="268" fill="#e6edf3" style="animation:st 0.069s steps(1) 10.454s forwards">3.7<tspan class="mu" dx="5" style="font-weight:400">contributions</tspan></text>
<text class="m big st" x="648" y="268" fill="#e6edf3" style="animation:st 0.069s steps(1) 10.523s forwards">3.8<tspan class="mu" dx="5" style="font-weight:400">contributions</tspan></text>
<text class="m big st" x="648" y="268" fill="#e6edf3" style="animation:st 0.069s steps(1) 10.592s forwards">4.0<tspan class="mu" dx="5" style="font-weight:400">contributions</tspan></text>
<text class="m big st" x="648" y="268" fill="#e6edf3" style="animation:st 0.069s steps(1) 10.662s forwards">4.1<tspan class="mu" dx="5" style="font-weight:400">contributions</tspan></text>
<text class="m big fin" x="648" y="268" fill="#e6edf3" style="animation:fade .05s 10.731s forwards">4.2<tspan class="mu" dx="5" style="font-weight:400">contributions</tspan></text>
<g class="f" style="animation:fade 0.4s ease-out 9.80s forwards"><rect x="396" y="302" width="468" height="90" rx="8" fill="#111b27" stroke="#1f3040"/><text class="m mu" x="408" y="318" style="font-size:10px">$ contributions / month</text></g>
<rect class="bar" x="414.1" y="368.0" width="22.0" height="2.0" rx="2" fill="#26a641" style="animation:grow .7s cubic-bezier(.2,.8,.2,1) 10.30s forwards"/>
<g class="f" style="animation:fade 0.3s ease-out 10.60s forwards"><text class="m mu" x="425.1" y="380" text-anchor="middle" style="font-size:8px">O</text></g>
<rect class="bar" x="448.2" y="368.0" width="22.0" height="2.0" rx="2" fill="#26a641" style="animation:grow .7s cubic-bezier(.2,.8,.2,1) 10.37s forwards"/>
<g class="f" style="animation:fade 0.3s ease-out 10.67s forwards"><text class="m mu" x="459.2" y="380" text-anchor="middle" style="font-size:8px">N</text></g>
<rect class="bar" x="482.4" y="359.2" width="22.0" height="10.8" rx="2" fill="#26a641" style="animation:grow .7s cubic-bezier(.2,.8,.2,1) 10.44s forwards"/>
<g class="f" style="animation:fade 0.3s ease-out 10.74s forwards"><text class="m mu" x="493.4" y="380" text-anchor="middle" style="font-size:8px">D</text></g>
<rect class="bar" x="516.5" y="368.0" width="22.0" height="2.0" rx="2" fill="#26a641" style="animation:grow .7s cubic-bezier(.2,.8,.2,1) 10.51s forwards"/>
<g class="f" style="animation:fade 0.3s ease-out 10.81s forwards"><text class="m mu" x="527.5" y="380" text-anchor="middle" style="font-size:8px">J</text></g>
<rect class="bar" x="550.7" y="367.0" width="22.0" height="3.0" rx="2" fill="#26a641" style="animation:grow .7s cubic-bezier(.2,.8,.2,1) 10.58s forwards"/>
<g class="f" style="animation:fade 0.3s ease-out 10.88s forwards"><text class="m mu" x="561.7" y="380" text-anchor="middle" style="font-size:8px">F</text></g>
<rect class="bar" x="584.8" y="359.2" width="22.0" height="10.8" rx="2" fill="#26a641" style="animation:grow .7s cubic-bezier(.2,.8,.2,1) 10.65s forwards"/>
<g class="f" style="animation:fade 0.3s ease-out 10.95s forwards"><text class="m mu" x="595.8" y="380" text-anchor="middle" style="font-size:8px">M</text></g>
<rect class="bar" x="619.0" y="336.0" width="22.0" height="34.0" rx="2" fill="#39d353" style="animation:grow .7s cubic-bezier(.2,.8,.2,1) 10.72s forwards"/>
<g class="f" style="animation:fade 0.3s ease-out 11.02s forwards"><text class="m mu" x="630.0" y="380" text-anchor="middle" style="font-size:8px">A</text></g>
<rect class="bar" x="653.2" y="353.7" width="22.0" height="16.3" rx="2" fill="#26a641" style="animation:grow .7s cubic-bezier(.2,.8,.2,1) 10.79s forwards"/>
<g class="f" style="animation:fade 0.3s ease-out 11.09s forwards"><text class="m mu" x="664.2" y="380" text-anchor="middle" style="font-size:8px">M</text></g>
<rect class="bar" x="687.3" y="360.1" width="22.0" height="9.9" rx="2" fill="#26a641" style="animation:grow .7s cubic-bezier(.2,.8,.2,1) 10.86s forwards"/>
<g class="f" style="animation:fade 0.3s ease-out 11.16s forwards"><text class="m mu" x="698.3" y="380" text-anchor="middle" style="font-size:8px">J</text></g>
<rect class="bar" x="721.5" y="362.1" width="22.0" height="7.9" rx="2" fill="#26a641" style="animation:grow .7s cubic-bezier(.2,.8,.2,1) 10.93s forwards"/>
<g class="f" style="animation:fade 0.3s ease-out 11.23s forwards"><text class="m mu" x="732.5" y="380" text-anchor="middle" style="font-size:8px">J</text></g>
<rect class="bar" x="755.6" y="338.0" width="22.0" height="32.0" rx="2" fill="#26a641" style="animation:grow .7s cubic-bezier(.2,.8,.2,1) 11.00s forwards"/>
<g class="f" style="animation:fade 0.3s ease-out 11.30s forwards"><text class="m mu" x="766.6" y="380" text-anchor="middle" style="font-size:8px">A</text></g>
<rect class="bar" x="789.8" y="343.9" width="22.0" height="26.1" rx="2" fill="#26a641" style="animation:grow .7s cubic-bezier(.2,.8,.2,1) 11.07s forwards"/>
<g class="f" style="animation:fade 0.3s ease-out 11.37s forwards"><text class="m mu" x="800.8" y="380" text-anchor="middle" style="font-size:8px">S</text></g>
<rect class="bar" x="823.9" y="356.2" width="22.0" height="13.8" rx="2" fill="#26a641" style="animation:grow .7s cubic-bezier(.2,.8,.2,1) 11.14s forwards"/>
<g class="f" style="animation:fade 0.3s ease-out 11.44s forwards"><text class="m mu" x="834.9" y="380" text-anchor="middle" style="font-size:8px">O</text></g>
</svg>
